<svg width="244" height="161" viewBox="0 0 244 161" fill="none" xmlns="http://www.w3.org/2000/svg">
<rect width="244" height="161" fill="transparent"/>
<path d="M94.7815 69.9C94.8815 63.2 96.8815 57.2 101.382 52.1C107.082 45.6 115.481 44.5 121.981 46.6C122.981 46.9 123.881 47.4 124.781 48C125.281 48.4 125.481 48.3 125.581 47.7C126.081 44.6 126.581 41.5 127.081 38.3C127.481 36.1 127.881 33.8 128.181 31.6C128.281 31.1 128.382 31 128.882 31C130.782 31.1 132.681 31.1 134.481 31.1C135.081 31.1 135.181 31.4 135.081 31.9C134.281 36.3 133.582 40.7 132.882 45.1C131.882 50.9 130.881 56.6 130.081 62.4C129.581 65.8 128.981 69.2 127.581 72.3C124.681 78.8 119.982 83.2 112.882 84.6C109.281 85.3 105.681 85.2 102.281 83.6C97.9815 81.7 95.8815 78.2 95.1815 73.8C94.7815 72.5 94.7815 71.2 94.7815 69.9ZM122.281 60.7C122.281 59.7 122.281 58.6 122.081 57.6C121.581 54.9 120.181 52.8 117.382 52.1C115.982 51.7 114.581 51.7 113.081 52C109.881 52.5 107.581 54.4 105.981 57C102.981 61.7 101.981 67 102.681 72.5C103.081 76.1 104.882 78 107.882 78.6C109.281 78.9 110.781 78.9 112.181 78.6C115.381 77.9 117.381 75.8 118.981 73.2C121.281 69.2 122.281 65.1 122.281 60.7Z" fill="#838586"/>
<path d="M46.8815 75.2C46.5815 77.7 46.3815 80.1 46.0815 82.5C46.0815 82.8 45.9815 83 45.6815 83.1C40.9815 84.6 36.1815 85.5 31.2815 84.4C26.6815 83.4 23.4815 80.6 22.1815 76.1C19.8815 67.9 20.7815 60.2 26.2815 53.4C32.2815 45.9 41.4815 44.4 48.4815 46.5C51.8815 47.5 54.4815 49.7 54.9815 53.4C55.6815 58 54.0815 61.8 50.2815 64.6C46.8815 67.1 42.9815 68.2 38.7815 68.4C35.5815 68.6 32.3815 68.3 29.3815 67C29.0815 66.9 28.8815 67 28.8815 67.4C28.6815 69.1 28.6815 70.9 29.1815 72.6C30.0815 75.9 32.5815 77.9 35.9815 78.5C39.4815 79 42.4815 78.1 45.3815 76.2C45.7815 75.8 46.2815 75.5 46.8815 75.2ZM36.9815 62.2C38.0815 62.2 40.0815 62 41.8815 61.5C43.7815 61 45.6815 60.3 46.8815 58.7C48.8815 56.2 47.8815 53 44.9815 52.2C42.8815 51.7 40.7815 51.8 38.7815 52.4C34.3815 53.6 32.0815 56.9 30.4815 60.8C30.2815 61.3 30.5815 61.3 30.8815 61.4C32.5815 62 34.3815 62.3 36.9815 62.2Z" fill="#838586"/>
<path d="M79.5815 80.4C75.5815 84.3 70.6815 85.1 65.4815 84.7C60.7815 84.4 57.5815 80.8 57.3815 75.7C57.2815 72.9 57.7815 70.3 58.2815 67.6C59.4815 60.7 60.6815 53.9 61.8815 47C61.9815 46.4 62.1815 46.2 62.8815 46.2C64.8815 46.2 66.9815 46.2 68.9815 46.2C69.5815 46.2 69.6815 46.3 69.5815 46.9C68.0815 54.9 66.6815 63 65.1815 71.1C65.0815 71.8 65.0815 72.6 65.0815 73.4C65.1815 76.7 66.8815 78.5 70.1815 78.6C75.4815 78.8 80.5815 74.6 81.5815 69.4C82.9815 62 84.2815 54.7 85.6815 47.3C85.7815 46.6 85.9815 46.2 86.8815 46.3C88.7815 46.4 90.7815 46.3 92.6815 46.3C93.3815 46.3 93.5815 46.3 93.4815 47.1C91.2815 58.7 89.1815 70.3 87.0815 81.9C86.9815 82.2 86.9815 82.6 86.8815 82.9C86.6815 84.2 86.6815 84.2 85.2815 84.2C83.3815 84.2 81.4815 84.2 79.6815 84.2C79.1815 84.2 78.8815 84.1 79.0815 83.5C79.1815 82.5 79.3815 81.4 79.5815 80.4Z" fill="#838586"/>
<path d="M192.281 119.7C191.981 122.1 191.781 124.5 191.581 126.9C191.581 127.2 191.481 127.4 191.181 127.5C186.681 128.9 182.181 129.8 177.481 129C172.181 128 168.781 124.8 167.481 119.5C165.881 112.9 166.381 106.4 169.981 100.4C175.281 91.7 183.981 88.8 192.781 90.5C193.981 90.7 195.181 91.2 196.281 91.8C199.381 93.5 200.881 96.1 200.781 99.6C200.781 103.9 198.881 107.2 195.281 109.5C191.681 111.9 187.581 112.9 183.281 112.9C180.481 112.9 177.681 112.6 175.081 111.5C174.581 111.3 174.481 111.5 174.481 111.9C174.281 113.6 174.281 115.3 174.681 116.9C175.581 120.4 177.981 122.2 181.381 122.8C184.881 123.4 188.081 122.5 190.981 120.6C191.281 120.3 191.681 119.9 192.281 119.7ZM181.681 106.7C184.481 106.7 187.181 106.4 189.781 105.2C190.981 104.7 191.981 103.9 192.681 102.8C194.281 100.1 193.081 97.2 190.181 96.7C187.981 96.3 185.681 96.4 183.581 97.2C179.581 98.6 177.481 101.7 175.881 105.4C175.681 105.8 175.881 105.9 176.181 106C178.081 106.5 179.781 106.7 181.681 106.7Z" fill="#838586"/>
<path d="M218.082 81.2C217.582 83.5 217.082 85.6 216.582 87.7C216.282 88.9 215.982 90.2 215.682 91.4C215.582 92 215.682 92.1 216.282 92.1C217.982 92.1 219.682 92.1 221.282 92.1C222.082 92.1 222.182 92.3 221.982 93C221.682 94.4 221.282 95.9 221.082 97.4C220.982 98 220.782 98.1 220.182 98.1C218.482 98.1 216.682 98.1 214.982 98.1C214.482 98.1 214.182 98.2 214.082 98.7C212.782 105.1 211.482 111.4 210.182 117.8C209.982 119 209.982 120.1 210.282 121.3C210.582 122.4 211.082 123.3 212.182 123.8C212.682 124 212.582 124.2 212.282 124.6C210.782 126.3 209.382 127.9 207.882 129.6C207.582 130 207.282 130.1 206.782 129.8C203.882 128.3 202.682 125.8 202.282 122.7C201.982 120.2 202.682 117.9 203.182 115.6C205.282 105.5 207.482 95.3 209.482 85.2C209.582 84.8 209.582 84.5 210.082 84.4C212.782 83.2 215.382 82.2 218.082 81.2Z" fill="#838586"/>
<path d="M153.781 129.4C152.581 129.4 151.281 129.4 150.081 129.4C149.381 129.4 149.281 129.2 149.381 128.6C149.981 125.1 150.581 121.5 151.081 118C151.681 114.2 152.381 110.3 152.981 106.5C153.681 102 150.481 98.5 146.281 98.9C142.881 99.3 140.181 101.8 139.681 105.2C138.381 113.1 137.081 120.9 135.881 128.8C135.781 129.4 135.581 129.6 134.981 129.6C132.581 129.6 130.181 129.6 127.781 129.6C127.281 129.6 127.081 129.5 127.181 128.9C128.681 120.7 129.881 112.5 131.481 104.3C132.081 101 132.981 97.8 135.181 95.1C138.581 90.9 143.081 89.2 148.381 89.7C151.181 90 153.782 90.6 156.182 92.1C158.782 93.8 160.082 96.3 160.882 99.1C161.882 102.6 161.682 106.1 161.182 109.7C160.282 115.9 159.281 122.2 158.381 128.4C158.281 129.2 157.982 129.5 157.182 129.4C156.082 129.3 154.981 129.4 153.781 129.4Z" fill="#BB2C16"/>
<path d="M170.482 60.3C170.182 65.5 169.182 70.7 166.182 75.4C161.782 82.4 153.882 86 145.882 84.6C139.982 83.6 136.082 79.7 135.282 73.4C134.182 65 136.382 57.4 142.382 51.2C147.782 45.7 154.382 44.2 161.782 46.3C166.782 47.8 169.382 51.4 170.282 56.5C170.482 57.6 170.482 58.8 170.482 60.3ZM142.982 69.6C142.982 70.1 143.082 70.8 143.082 71.6C143.482 76.4 146.482 78.8 151.282 78.4C154.182 78.1 156.382 76.8 158.082 74.5C161.882 69.5 162.982 63.7 162.182 57.6C161.882 55.3 160.782 53.3 158.382 52.5C155.382 51.4 152.382 51.7 149.782 53.6C147.582 55.2 145.982 57.3 144.982 59.8C143.782 62.9 143.182 66.1 142.982 69.6Z" fill="#BB2C16"/>
<path d="M158.482 88.5C159.882 88 161.182 87.5 162.382 86.8C167.582 83.8 170.882 79.2 173.082 73.7C173.482 72.7 173.782 71.6 174.182 70.5C174.282 70.1 174.482 69.9 174.982 70.1C176.782 70.7 178.682 71.3 180.482 71.9C180.982 72 181.082 72.2 180.982 72.7C178.682 82.2 173.682 89.7 164.982 94.5C164.382 94.8 164.182 94.7 163.882 94.1C162.982 92 161.382 90.4 159.482 89.2C159.082 89 158.682 88.9 158.482 88.5Z" fill="#BB2C16"/>
<path d="M137.682 87.1C131.882 90.5 129.182 95.8 128.082 102.1C127.882 103 127.882 103.8 127.782 104.7C127.782 105.1 127.682 105.3 127.282 105.3C125.282 105.2 123.182 105 121.182 104.9C120.882 104.9 120.682 104.7 120.682 104.4C121.382 95.2 124.282 87 131.682 80.9C131.782 80.8 131.882 80.7 131.982 80.7C132.182 80.5 132.382 80.5 132.482 80.9C133.282 83.7 135.182 85.6 137.582 87.1C137.582 86.9 137.582 87 137.682 87.1Z" fill="#BB2C16"/>
</svg>
