<svg xmlns="http://www.w3.org/2000/svg" preserveAspectRatio="xMidYMid" width="120.527" height="65.172" viewBox="0 0 120.527 65.171974" id="svg2"><defs id="defs4"><style id="style6">.cls-1 { fill: #2b2b2b; } .cls-1, .cls-2 { fill-rule: evenodd; } .cls-2 { fill: #44c3f2; stroke: #2f92b6; stroke-linejoin: round; stroke-width: 1px; }</style></defs><g id="artboard-1" fill-rule="evenodd"><path d="M120.51 8.955c-.013.126-.026.232-.037.315h-7.542c.037.42.136.8.298 1.134.162.337.37.628.63.873.258.247.55.436.882.567.33.133.675.198 1.035.198.263 0 .524-.032.783-.1.258-.064.495-.16.71-.287.217-.126.408-.28.577-.46.168-.18.3-.377.396-.593l1.693.486c-.324.71-.862 1.287-1.61 1.737-.75.45-1.624.675-2.62.675-.732 0-1.398-.13-1.998-.387-.6-.257-1.114-.608-1.54-1.053-.425-.443-.755-.96-.99-1.548-.233-.587-.35-1.21-.35-1.872 0-.66.117-1.287.35-1.88.235-.595.565-1.117.99-1.567.426-.45.94-.803 1.54-1.062.6-.256 1.27-.386 2.016-.386.732 0 1.396.133 1.99.396.594.265 1.1.616 1.52 1.053.42.44.74.95.964 1.53.222.583.333 1.192.333 1.827 0 .144-.007.28-.018.405zm-2.242-2.15c-.162-.336-.37-.622-.62-.856-.253-.235-.548-.417-.883-.55-.336-.13-.69-.198-1.062-.198-.372 0-.723.067-1.053.198-.33.133-.62.315-.873.55-.252.233-.457.52-.612.854-.156.337-.252.702-.288 1.098h5.688c-.036-.396-.135-.76-.297-1.098zm-9.846-.658c-.594.33-1.017.8-1.27 1.413v5.76h-1.98V3.906h1.837v2.106c.323-.648.746-1.166 1.268-1.557.522-.39 1.082-.603 1.683-.64h.298c.077 0 .146.008.207.02v1.78c-.77.026-1.45.203-2.043.532zm-6.02 7.263c-.386 0-.683-.095-.892-.288-.21-.19-.34-.437-.387-.738l-.054-.594c-.422.553-.94.976-1.558 1.27-.62.293-1.28.44-1.99.44-.456 0-.88-.075-1.268-.225-.39-.15-.727-.356-1.008-.62-.282-.264-.504-.577-.666-.937-.162-.36-.243-.75-.243-1.17 0-.443.096-.846.288-1.206.19-.36.465-.67.82-.936.352-.263.773-.468 1.26-.612.485-.144 1.022-.216 1.61-.216.443 0 .882.04 1.314.117.43.08.82.184 1.17.315v-.648c0-.695-.2-1.238-.595-1.63-.396-.388-.966-.584-1.71-.584-.504 0-1 .094-1.485.28-.486.186-.988.453-1.503.8l-.612-1.26c1.212-.815 2.472-1.224 3.78-1.224 1.296 0 2.304.33 3.024.99.72.66 1.08 1.61 1.08 2.844v3.402c0 .42.172.637.52.648v1.692c-.19.036-.357.06-.494.072-.138.012-.273.018-.405.018zm-1.603-4.284c-.337-.13-.694-.234-1.072-.306-.378-.072-.747-.108-1.107-.108-.708 0-1.286.153-1.736.46-.45.305-.675.71-.675 1.214 0 .468.172.862.52 1.18.35.318.793.476 1.333.476.48 0 .933-.086 1.36-.26.424-.174.757-.417.998-.73.253-.216.38-.443.38-.684V9.126zm-8.64 4.284c-.36 0-.667-.1-.92-.297-.25-.198-.383-.452-.395-.765l-.036-.936c-.42.684-.967 1.204-1.64 1.557-.67.353-1.41.53-2.213.53-.984 0-1.728-.32-2.232-.963-.504-.64-.756-1.598-.756-2.87v-5.76h1.98V9.27c0 1.692.6 2.538 1.8 2.538.563 0 1.097-.173 1.6-.522.505-.347.895-.85 1.17-1.512V3.906h1.98v7.074c0 .23.04.39.118.486.078.097.22.15.423.162v1.692c-.203.036-.37.06-.503.072-.132.012-.258.018-.378.018zm-10.963 3.726c-.408 0-.76-.138-1.053-.414-.294-.276-.44-.618-.44-1.026v-4.14c-.385.648-.862 1.134-1.432 1.458-.57.324-1.215.486-1.935.486-.612 0-1.173-.132-1.683-.396-.51-.263-.948-.617-1.314-1.062-.366-.443-.65-.963-.855-1.557-.204-.594-.306-1.22-.306-1.88 0-.672.11-1.302.332-1.89.222-.588.53-1.104.927-1.55.395-.442.863-.79 1.403-1.043.54-.252 1.128-.378 1.764-.378.72 0 1.368.175 1.944.522.577.35 1.04.8 1.387 1.35v-1.71h1.746v10.818c0 .228.045.387.135.477.09.09.237.148.44.172v1.692c-.18.024-.362.042-.548.054-.186.012-.357.018-.513.018zm-1.494-9.612c-.06-.288-.18-.558-.36-.81s-.393-.47-.64-.657c-.245-.185-.512-.335-.8-.45-.288-.113-.57-.17-.846-.17-.42 0-.804.09-1.152.27-.348.18-.648.42-.9.72s-.45.645-.594 1.034c-.143.392-.215.79-.215 1.198 0 .432.072.84.216 1.224.145.385.343.718.595 1 .252.282.552.507.9.674.348.17.732.252 1.152.252.6 0 1.12-.17 1.557-.513.438-.342.8-.77 1.09-1.287V7.524zm-10.09 5.067c-.425.296-.92.512-1.484.65-.565.137-1.17.206-1.82.206-.97 0-1.91-.146-2.816-.44-.906-.294-1.725-.723-2.457-1.288l.918-1.728c.156.157.38.33.675.522.294.193.636.37 1.026.53.39.163.813.302 1.27.415.455.115.93.17 1.42.17.793 0 1.405-.136 1.837-.413.432-.275.648-.684.648-1.224 0-.324-.08-.594-.242-.81-.162-.216-.393-.405-.693-.567-.3-.162-.666-.308-1.098-.44-.432-.132-.924-.27-1.476-.415-.635-.167-1.19-.344-1.664-.53-.474-.186-.867-.41-1.18-.676-.31-.263-.548-.572-.71-.927-.162-.353-.243-.783-.243-1.287 0-.623.12-1.18.36-1.665.24-.486.567-.893.98-1.224.415-.33.904-.58 1.468-.748.565-.167 1.177-.252 1.837-.252.864 0 1.662.14 2.394.414.733.277 1.375.62 1.927 1.026l-.918 1.656c-.12-.13-.295-.272-.523-.423-.228-.15-.495-.29-.8-.423-.307-.13-.643-.24-1.01-.324-.365-.083-.74-.126-1.124-.126-.852 0-1.48.157-1.88.468-.403.313-.604.745-.604 1.296 0 .313.062.567.188.765.126.197.32.372.585.52.264.152.594.284.99.397.396.115.858.238 1.386.37.647.156 1.232.33 1.754.52.522.194.963.428 1.323.703.36.277.64.616.837 1.017.198.403.297.89.297 1.467 0 .648-.122 1.206-.368 1.674-.246.468-.582.85-1.008 1.143zM55.638 9.27h-7.542c.036.42.135.8.297 1.134.162.337.372.628.63.873.258.247.552.436.882.567.33.133.675.198 1.035.198.263 0 .524-.032.782-.1.258-.064.495-.16.71-.287.217-.126.41-.28.577-.46.167-.18.3-.377.395-.593l1.692.486c-.324.71-.86 1.287-1.61 1.737-.75.45-1.624.675-2.62.675-.732 0-1.398-.13-1.998-.387-.6-.257-1.114-.608-1.54-1.053-.426-.443-.756-.96-.99-1.548-.234-.587-.35-1.21-.35-1.872 0-.66.116-1.287.35-1.88.234-.595.564-1.117.99-1.567.426-.45.94-.803 1.54-1.062.6-.256 1.27-.386 2.015-.386.732 0 1.395.133 1.99.396.593.265 1.1.616 1.52 1.053.42.44.74.95.963 1.53.222.583.333 1.192.333 1.827 0 .144-.005.28-.017.405-.012.126-.024.232-.036.315zm-2.205-2.466c-.162-.335-.37-.62-.62-.855-.253-.235-.547-.417-.883-.55-.337-.13-.69-.198-1.063-.198-.372 0-.723.067-1.053.198-.33.133-.62.315-.873.55-.25.233-.455.52-.61.854-.157.337-.253.702-.29 1.098h5.69c-.037-.396-.136-.76-.298-1.098zm-10.43 6.66c-.313 0-.607-.042-.883-.126-.277-.083-.52-.21-.73-.378-.21-.167-.375-.387-.495-.657s-.18-.596-.18-.98V5.435h-1.242v-1.53h1.242V.81h1.98v3.096h2.052v1.53h-2.052v5.256c.024.337.13.58.315.73.186.15.417.224.693.224.276 0 .54-.047.792-.144.252-.095.438-.173.558-.234l.414 1.566c-.252.12-.6.256-1.044.405-.444.15-.918.224-1.422.224zm-7.128-9.558h1.98v9.414h-1.98V3.906zm0-3.726h1.98v2.178h-1.98V.18zM31.59 8.046c0-.887-.14-1.532-.423-1.935-.282-.4-.7-.602-1.25-.602-.29 0-.577.054-.865.162-.288.108-.558.26-.81.46-.252.197-.477.43-.675.7-.198.27-.35.568-.46.892v5.598h-1.98V3.906h1.8v1.89c.36-.635.883-1.136 1.567-1.503.684-.365 1.44-.55 2.268-.55.564 0 1.026.104 1.386.307.36.205.645.484.855.837.21.355.357.763.44 1.224.085.464.127.953.127 1.468v5.742h-1.98V8.046zM20.772 5.67H17.82v7.65h-1.98V5.67h-1.26V4.14h1.26v-.378c0-.49.078-.963.234-1.413.156-.45.39-.85.702-1.198.312-.347.693-.626 1.143-.837.45-.21.974-.315 1.574-.315.684 0 1.29.106 1.818.315.528.21.99.454 1.386.73l-.81 1.475c-.276-.24-.615-.437-1.017-.594-.4-.155-.818-.234-1.25-.234-.312 0-.582.058-.81.17-.228.116-.414.27-.558.46-.144.193-.252.41-.324.648-.072.24-.108.486-.108.738v.432h4.932v9.18h-1.98V5.67zm-9.666 2.376c0-.887-.14-1.532-.423-1.935-.282-.4-.7-.602-1.25-.602-.29 0-.577.054-.865.162-.288.108-.558.26-.81.46-.252.197-.477.43-.675.7-.198.27-.35.568-.46.892v5.598h-1.98V3.906h1.8v1.89c.36-.635.883-1.136 1.567-1.503.684-.365 1.44-.55 2.268-.55.564 0 1.026.104 1.386.307.36.205.645.484.855.837.21.355.356.763.44 1.224.084.464.126.953.126 1.468v5.742h-1.98V8.046zM0 .54h2.016v12.78H0V.54z" class="cls-1" id="path9" fill="#2b2b2b"/><path d="M63.013 64.672S49.76 48.56 49.76 41.83c0-7.258 6.257-13.142 13.405-13.142 7.147 0 13.58 5.884 13.58 13.142 0 6.955-13.732 22.842-13.732 22.842zm.24-31.85c-2.24 0-4.057 1.844-4.057 4.12 0 2.274 1.816 4.118 4.056 4.118s4.056-1.844 4.056-4.12c0-2.274-1.816-4.118-4.056-4.118z" class="cls-2" id="path11" fill="#44c3f2" stroke="#2f92b6" stroke-linejoin="round"/></g></svg>